<?xml version="1.0" encoding="utf-8"?>
<!-- Generator: Adobe Illustrator 21.0.0, SVG Export Plug-In . SVG Version: 6.00 Build 0)  -->
<svg version="1.1" xmlns="http://www.w3.org/2000/svg" xmlns:xlink="http://www.w3.org/1999/xlink" x="0px" y="0px"
	 viewBox="0 0 340.9 578" style="enable-background:new 0 0 340.9 578;" xml:space="preserve">
<style type="text/css">
	.st0{fill:#D3D3D3;}
	.st1{fill:#FCB330;}
	.st2{fill:#493918;}
	.st3{fill:#19334C;}
	.st4{fill:#4C4C4C;}
	.st5{fill:#FFD694;}
	.st6{fill:#FCE1AC;}
	.st7{fill:#333333;}
	.st8{fill:#DBDBDB;}
	.st9{fill:#FFFFFF;}
	.st10{fill:#7C7C7C;}
	.st11{fill:#C9C9C9;}
</style>
<g id="Layer_5">
	<polygon class="st0" points="268.6,517.3 270.1,520.5 297.1,518.9 289.2,507.8 	"/>
	<path class="st1" d="M265.4,539.6v3.2c0,0,9.5,1.6,12.7,1.6s11.2,0.6,16,2.2c4.8,1.6,12.6,4.2,15.8,4.2s23.8,0,27-1.6
		s3.2-1.6,3.2-1.6l0.4-4.5L265.4,539.6z"/>
	<path class="st2" d="M268.6,518.9c0,0-3.2,1.6-4.8,9.5c-1.6,7.9,0,9.5,1.6,11.1c1.6,1.6,11.1,1.6,22.2,3.2
		c11.1,1.6,11.1,4.8,27,4.8s22.2,0,23.8-1.6c1.6-1.6,4.8-6.3,0-9.5c-4.8-3.2-9.5-1.6-15.9-6.3s-23.8-19-25.4-19
		c-1.6,0-3.2,0-4.8,1.6c-1.6,1.6-3.2,4.8-7.9,6.3C279.7,520.5,270.1,517.3,268.6,518.9z"/>
	<polygon class="st0" points="22.6,520.5 16.3,536.4 35.3,541.1 44.8,526.9 	"/>
	<path class="st1" d="M1.8,569.1l-0.1,4.4c0,0,2.7,4.1,16.1,4.5s18.2-5.1,18.2-5.1v-4.6L1.8,569.1z"/>
	<path class="st2" d="M13.1,536.4c3.2-3.2,7.9-4.8,12.7-4.8s11.1,6.3,12.7,7.9c1.6,1.6,1.6,14.3,0,15.9s-3.2,3.2-3.2,4.8
		c0,1.6,1.6,7.9,0,9.5s-7.9,6.3-19,4.8S2,572.9,0.4,564.9c-1.6-7.9,1.6-4.8,4.8-11.1S9.9,539.6,13.1,536.4z"/>
</g>
<g id="Layer_4">
	<path class="st3" d="M132.1,323.8l27-11.1l36.5,1.6l19,15.9c0,0,27,55.5,30.1,58.7s12.7,22.2,15.9,25.4s7.9,12.7,9.5,17.5
		c1.6,4.8,11.1,42.8,12.7,47.6c1.6,4.8,9.5,28.6,9.5,28.6s-7.9,7.9-11.1,9.5s-14.3,0-14.3,0s-9.5-22.2-11.1-25.4
		c-1.6-3.2-14.3-19-14.3-19l-6.3-14.3c0,0-20.6-23.8-25.4-28.6s-28.6-31.7-31.7-38.1s-7.9-15.9-7.9-15.9s-17.5,15.9-19,19
		s-19,36.5-22.2,41.3c-3.2,4.8-17.5,27-22.2,28.6c-4.8,1.6-28.6,27-33.3,31.7c-4.8,4.8-14.3,14.3-19,23.8
		c-1.4,2.8-7.9,11.1-7.9,11.1s-11.1-1.6-12.7-3.2s-14.3-7.9-14.3-7.9s20.6-41.3,27-49.2c6.3-7.9,17.5-25.4,20.6-31.7
		s19-28.6,23.8-39.7c4.8-11.1,22.2-50.8,30.1-61.9c7.9-11.1,17-21.7,17-21.7"/>
</g>
<g id="Layer_2">
	<path class="st4" d="M205.1,223.8c0-0.5-3.2-3.2-3.2-4.8c0-3.2-11.5-4.8-12.7-4.8c-3.2,0-28.6-7.9-28.6-4.8s42.8,21,42.6,20.3
		C203,229,205.1,227,205.1,223.8z"/>
	<path class="st5" d="M195.4,210.6c0,0,0.2,16.4,3.3,21.2s-39.7-15.9-39.7-15.9s9.5-12.7,9.5-19S195.4,210.6,195.4,210.6z"/>
	<path class="st6" d="M182.9,214.3c3.2,1.6,12.7-1.6,17.5-6.3s12.7-30.1,12.7-38.1s0-22.2-15.9-27s-30.1,1.6-33.3,6.3
		s-9.5,33.3,0,52.4C167,208,179.7,212.7,182.9,214.3z"/>
	<path class="st7" d="M171.8,158.8c0,0,4.8,6.3,7.9,7.9s9.5-1.6,14.3,0c4.8,1.6,12.7,3.2,14.3,4.8s0,4.1,2.4,6.8
		c2.4,2.7,11.9-14.7,7.1-25.9s-14.2-16-20.6-17.5c-11.1-2.5-25.1,2.3-25.6,4.3c-1.3-0.7-2.7-0.6-5.3,1c-2.5,1.6-6.9,6.9-8.5,10
		s-1.3,18.7,1.3,21.2C160.7,173.1,171.8,158.8,171.8,158.8z"/>
</g>
<g id="Layer_6">
	<path class="st7" d="M132.1,90.5l0.4,4.4l23.8,2l1.8-3.5c0,0-4.2-2.8-12.7-3.6C136.9,89.1,132.1,90.5,132.1,90.5z"/>
	<path class="st6" d="M135.5,85.5c0,0-1-3.8-0.9-5.9c0-2.1,0.3-7.5,0-9.1S158,66,158,66l-2.9,22.6L135.5,85.5z"/>
	<path class="st8" d="M195.5,76.1l-99.1-6.6c-0.5,0-1-0.5-0.9-1.1L100,0.9c0-0.5,0.5-1,1.1-0.9l99.1,6.6c0.5,0,1,0.5,0.9,1.1
		l-4.5,67.5C196.5,75.7,196,76.1,195.5,76.1z"/>
	<path class="st6" d="M154.4,94.9c0,0-0.4-4.5,0.5-5.9c0.9-1.4,1.1-5.7,1.9-8.6c0.8-3,1.7-6.8,1.7-8.1s-3.4-7.8-4.3-8
		c-0.8-0.2-5.8,0.1-6.1,0.7c-0.3,0.6,0.1,2.2,1.4,2.9c1.3,0.7,2.3,0.7,2.3,0.7s0.4,4.3,0.8,4.8s-8.8,2.5-10,4.4
		c-1.2,1.9-7.2,7.8-7.2,7.8l-0.9,7.8L154.4,94.9z"/>
</g>
<g id="Layer_7">
	<path class="st7" d="M233.7,296.8c0,0,6.5,3.1,9.6,8.7c3.1,5.7,3.1,13.5,3.1,13.5s-13.3,0.8-17.2-7S233.7,296.8,233.7,296.8z"/>
	<path class="st6" d="M233.9,299c0,0,4.1-10.1,6.5-11.4c2.5-1.3,8.7-3.4,9.5-2.8c0.8,0.6,4,6.6,3.7,7.7c-0.3,1.1-4.9-0.4-5.4-0.7
		c-0.5-0.3-3.6,1.8-3.6,1.8s3.1,8.2,2.1,11.8c-1,3.6-0.5,11.4-0.5,11.4l-10,3.4L228,302L233.9,299z"/>
	<path class="st6" d="M239.2,291.5c0,0,11.9-6,13.4-6.3c1.5-0.3,7.2-1.4,8.8,0.7c0.6,0.8-0.2,2.7-0.8,3.2c-0.6,0.5-1.5,0.8-1.5,0.8
		s2.6-0.2,3.3,1.7c0.7,1.9-0.7,4.5-0.7,4.5s0.9-0.2,1.9,1.4c1,1.6,0,3.6,0,3.6s-1,0.9-1.4,1c-0.4,0.1,0.8,0.3,1.1,1.3
		c0.3,1,0.3,3.8-1,4.7c-1.3,0.9-3.6,3.6-4.8,4.2c-1.2,0.6-11.2,4.8-11.2,4.8L239.2,291.5z"/>
</g>
<g id="Layer_3">
	<path class="st9" d="M157.5,211.1c0,0,11.1-4.8,14.3-3.2s14.3,12.7,20.6,17.5c5.2,3.9,7.9,0,7.9,0l9.5,88.8l-69.8-7.9L157.5,211.1z
		"/>
	<path class="st4" d="M195.6,306.3c3.2,14.3,17.5,20.6,19,22.2c1.6,1.6,11.1,0,14.3,0s17.5-9.5,17.5-9.5s-9.5-3.2-12.7-7.9
		c-3.2-4.8,0-14.3,0-14.3s-14.3,6.3-15.9,4.8c-1.6-1.6-4.8-19-4.8-22.2s-1.6-22.2-1.6-22.2L195.6,306.3z"/>
	<path class="st10" d="M132.1,90.5c-1.6,1.6,23.8,4.8,25.4,3.2s0,3.2,0,3.2s1.6,44.4,0,46s0,12.7,0,14.3s3.2,25.4,3.2,28.6
		s-1.6,9.5,0,14.3s6.3,1.6,7.9,4.8c1,2,25.4,14.3,27,36.5c1.2-8.1,0.9-13.3,2.2-15.1c0.3-0.4,0.6-0.4,1-0.4c0.3,0,1.2-0.6,1.6-0.4
		c3.2,1.6,14.3,31.7,12.7,38.1s-3.2,25.4-1.6,31.7s4.8,14.3,4.8,17.5s-1.6,17.5-1.6,17.5s-20.6-6.3-28.6-4.8
		c-7.9,1.6-36.5-4.8-39.7-3.2c-3.2,1.6-12.7,3.2-14.3,1.6c-1.6-1.6-1.6-15.9,3.2-27c4.8-11.1,0-9.5-3.2-17.5
		c-3.2-7.9-3.2-28.6-6.3-39.7c-3.2-11.1-4.8-19-4.8-27s-1.6-20.6-1.6-27s1.6-19,3.2-25.4s1.6-27,3.2-33.3c1.6-6.3,6.3-30.1,6.3-31.7
		S132.1,90.5,132.1,90.5z"/>
	<circle class="st11" cx="172" cy="212.4" r="1.4"/>
	<circle class="st9" cx="172" cy="212.4" r="0.9"/>
	<path class="st9" d="M171.4,212.4c0,0-0.9,16.1-0.8,18.1c0.1,2,0.9,7.2,0.8,9.2c-0.1,2.1-1.5,9.2-0.8,13.8c0.7,4.6,0.3,3.4,0.3,3.4
		l1.1,0.1c0,0-1-5.3-0.4-8.9c0.6-3.6,1.3-6.7,1.2-8.9c0-2.1-1.3-6.7-1.2-9.4c0.1-2.8,0.8-17.6,0.8-17.6H171.4z"/>
	<circle class="st11" cx="199.5" cy="227.6" r="0.7"/>
	<path class="st9" d="M199.1,227.7c0,0,0.8,4.7,0.7,5.5c-0.1,0.8,0.3,6.1,0.4,6.8c0,0.4,0.6,2,0.7,4.1c0.1,2.1-0.3,5.1-0.3,6
		c-0.1,1.6-0.4,10.3-0.1,11.7s0.3,1.3,0.3,1.3l0.7,0c0,0-0.4-1.6-0.4-2.7s0.1-6.3,0.2-6.8s0.2-3.8,0.2-4.2c0-0.5,0.5-5.5,0.4-6.3
		s-0.6-3-0.6-3.7c0-0.7-0.4-5.9-0.5-6.4c-0.1-0.5-0.8-5.4-0.8-5.4L199.1,227.7z"/>
	<circle class="st9" cx="199.5" cy="227.6" r="0.4"/>
</g>
</svg>
